<svg width="306" height="120" viewBox="0 0 306 120" fill="none" xmlns="http://www.w3.org/2000/svg">
<g opacity="0.1">
<path d="M23.5235 85.504C19.8275 85.504 16.5155 84.904 13.5875 83.704C10.6595 82.504 8.30748 80.728 6.53148 78.376C4.80348 76.024 3.89148 73.192 3.79548 69.88H16.8995C17.0915 71.752 17.7395 73.192 18.8435 74.2C19.9475 75.16 21.3875 75.64 23.1635 75.64C24.9875 75.64 26.4275 75.232 27.4835 74.416C28.5395 73.552 29.0675 72.376 29.0675 70.888C29.0675 69.64 28.6355 68.608 27.7715 67.792C26.9555 66.976 25.9235 66.304 24.6755 65.776C23.4755 65.248 21.7475 64.648 19.4915 63.976C16.2275 62.968 13.5635 61.96 11.4995 60.952C9.43548 59.944 7.65948 58.456 6.17148 56.488C4.68348 54.52 3.93948 51.952 3.93948 48.784C3.93948 44.08 5.64348 40.408 9.05148 37.768C12.4595 35.08 16.8995 33.736 22.3715 33.736C27.9395 33.736 32.4275 35.08 35.8355 37.768C39.2435 40.408 41.0675 44.104 41.3075 48.856H27.9875C27.8915 47.224 27.2915 45.952 26.1875 45.04C25.0835 44.08 23.6675 43.6 21.9395 43.6C20.4515 43.6 19.2515 44.008 18.3395 44.824C17.4275 45.592 16.9715 46.72 16.9715 48.208C16.9715 49.84 17.7395 51.112 19.2755 52.024C20.8115 52.936 23.2115 53.92 26.4755 54.976C29.7395 56.08 32.3795 57.136 34.3955 58.144C36.4595 59.152 38.2355 60.616 39.7235 62.536C41.2115 64.456 41.9555 66.928 41.9555 69.952C41.9555 72.832 41.2115 75.448 39.7235 77.8C38.2835 80.152 36.1715 82.024 33.3875 83.416C30.6035 84.808 27.3155 85.504 23.5235 85.504ZM89.2044 44.824V85H76.8924V79.528C75.6444 81.304 73.9404 82.744 71.7804 83.848C69.6684 84.904 67.3164 85.432 64.7244 85.432C61.6524 85.432 58.9404 84.76 56.5884 83.416C54.2364 82.024 52.4124 80.032 51.1164 77.44C49.8204 74.848 49.1724 71.8 49.1724 68.296V44.824H61.4124V66.64C61.4124 69.328 62.1084 71.416 63.5004 72.904C64.8924 74.392 66.7644 75.136 69.1164 75.136C71.5164 75.136 73.4124 74.392 74.8044 72.904C76.1964 71.416 76.8924 69.328 76.8924 66.64V44.824H89.2044ZM95.6 64.912C95.6 60.736 96.44 57.088 98.12 53.968C99.848 50.848 102.224 48.448 105.248 46.768C108.32 45.088 111.824 44.248 115.76 44.248C120.8 44.248 125 45.568 128.36 48.208C131.768 50.848 134 54.568 135.056 59.368H121.952C120.848 56.296 118.712 54.76 115.544 54.76C113.288 54.76 111.488 55.648 110.144 57.424C108.8 59.152 108.128 61.648 108.128 64.912C108.128 68.176 108.8 70.696 110.144 72.472C111.488 74.2 113.288 75.064 115.544 75.064C118.712 75.064 120.848 73.528 121.952 70.456H135.056C134 75.16 131.768 78.856 128.36 81.544C124.952 84.232 120.752 85.576 115.76 85.576C111.824 85.576 108.32 84.736 105.248 83.056C102.224 81.376 99.848 78.976 98.12 75.856C96.44 72.736 95.6 69.088 95.6 64.912ZM139.194 64.912C139.194 60.736 140.034 57.088 141.714 53.968C143.442 50.848 145.818 48.448 148.842 46.768C151.914 45.088 155.418 44.248 159.354 44.248C164.394 44.248 168.594 45.568 171.954 48.208C175.362 50.848 177.594 54.568 178.65 59.368H165.546C164.442 56.296 162.306 54.76 159.138 54.76C156.882 54.76 155.082 55.648 153.738 57.424C152.394 59.152 151.722 61.648 151.722 64.912C151.722 68.176 152.394 70.696 153.738 72.472C155.082 74.2 156.882 75.064 159.138 75.064C162.306 75.064 164.442 73.528 165.546 70.456H178.65C177.594 75.16 175.362 78.856 171.954 81.544C168.546 84.232 164.346 85.576 159.354 85.576C155.418 85.576 151.914 84.736 148.842 83.056C145.818 81.376 143.442 78.976 141.714 75.856C140.034 72.736 139.194 69.088 139.194 64.912ZM223.107 64.264C223.107 65.416 223.035 66.616 222.891 67.864H195.027C195.219 70.36 196.011 72.28 197.403 73.624C198.843 74.92 200.595 75.568 202.659 75.568C205.731 75.568 207.867 74.272 209.067 71.68H222.171C221.499 74.32 220.275 76.696 218.499 78.808C216.771 80.92 214.587 82.576 211.947 83.776C209.307 84.976 206.355 85.576 203.091 85.576C199.155 85.576 195.651 84.736 192.579 83.056C189.507 81.376 187.107 78.976 185.379 75.856C183.651 72.736 182.787 69.088 182.787 64.912C182.787 60.736 183.627 57.088 185.307 53.968C187.035 50.848 189.435 48.448 192.507 46.768C195.579 45.088 199.107 44.248 203.091 44.248C206.979 44.248 210.435 45.064 213.459 46.696C216.483 48.328 218.835 50.656 220.515 53.68C222.243 56.704 223.107 60.232 223.107 64.264ZM210.507 61.024C210.507 58.912 209.787 57.232 208.347 55.984C206.907 54.736 205.107 54.112 202.947 54.112C200.883 54.112 199.131 54.712 197.691 55.912C196.299 57.112 195.435 58.816 195.099 61.024H210.507ZM245.947 85.576C242.443 85.576 239.323 84.976 236.587 83.776C233.851 82.576 231.691 80.944 230.107 78.88C228.523 76.768 227.635 74.416 227.443 71.824H239.611C239.755 73.216 240.403 74.344 241.555 75.208C242.707 76.072 244.123 76.504 245.803 76.504C247.339 76.504 248.515 76.216 249.331 75.64C250.195 75.016 250.627 74.224 250.627 73.264C250.627 72.112 250.027 71.272 248.827 70.744C247.627 70.168 245.683 69.544 242.995 68.872C240.115 68.2 237.715 67.504 235.795 66.784C233.875 66.016 232.219 64.84 230.827 63.256C229.435 61.624 228.739 59.44 228.739 56.704C228.739 54.4 229.363 52.312 230.611 50.44C231.907 48.52 233.779 47.008 236.227 45.904C238.723 44.8 241.675 44.248 245.083 44.248C250.123 44.248 254.083 45.496 256.963 47.992C259.891 50.488 261.571 53.8 262.003 57.928H250.627C250.435 56.536 249.811 55.432 248.755 54.616C247.747 53.8 246.403 53.392 244.723 53.392C243.283 53.392 242.179 53.68 241.411 54.256C240.643 54.784 240.259 55.528 240.259 56.488C240.259 57.64 240.859 58.504 242.059 59.08C243.307 59.656 245.227 60.232 247.819 60.808C250.795 61.576 253.219 62.344 255.091 63.112C256.963 63.832 258.595 65.032 259.987 66.712C261.427 68.344 262.171 70.552 262.219 73.336C262.219 75.688 261.547 77.8 260.203 79.672C258.907 81.496 257.011 82.936 254.515 83.992C252.067 85.048 249.211 85.576 245.947 85.576ZM286.095 85.576C282.591 85.576 279.471 84.976 276.735 83.776C273.999 82.576 271.839 80.944 270.255 78.88C268.671 76.768 267.783 74.416 267.591 71.824H279.759C279.903 73.216 280.551 74.344 281.703 75.208C282.855 76.072 284.271 76.504 285.951 76.504C287.487 76.504 288.663 76.216 289.479 75.64C290.343 75.016 290.775 74.224 290.775 73.264C290.775 72.112 290.175 71.272 288.975 70.744C287.775 70.168 285.831 69.544 283.143 68.872C280.263 68.2 277.863 67.504 275.943 66.784C274.023 66.016 272.367 64.84 270.975 63.256C269.583 61.624 268.887 59.44 268.887 56.704C268.887 54.4 269.511 52.312 270.759 50.44C272.055 48.52 273.927 47.008 276.375 45.904C278.871 44.8 281.823 44.248 285.231 44.248C290.271 44.248 294.231 45.496 297.111 47.992C300.039 50.488 301.719 53.8 302.151 57.928H290.775C290.583 56.536 289.959 55.432 288.903 54.616C287.895 53.8 286.551 53.392 284.871 53.392C283.431 53.392 282.327 53.68 281.559 54.256C280.791 54.784 280.407 55.528 280.407 56.488C280.407 57.64 281.007 58.504 282.207 59.08C283.455 59.656 285.375 60.232 287.967 60.808C290.943 61.576 293.367 62.344 295.239 63.112C297.111 63.832 298.743 65.032 300.135 66.712C301.575 68.344 302.319 70.552 302.367 73.336C302.367 75.688 301.695 77.8 300.351 79.672C299.055 81.496 297.159 82.936 294.663 83.992C292.215 85.048 289.359 85.576 286.095 85.576Z" fill="#EDFAF1"/>
<path d="M23.5235 85.504C19.8275 85.504 16.5155 84.904 13.5875 83.704C10.6595 82.504 8.30748 80.728 6.53148 78.376C4.80348 76.024 3.89148 73.192 3.79548 69.88H16.8995C17.0915 71.752 17.7395 73.192 18.8435 74.2C19.9475 75.16 21.3875 75.64 23.1635 75.64C24.9875 75.64 26.4275 75.232 27.4835 74.416C28.5395 73.552 29.0675 72.376 29.0675 70.888C29.0675 69.64 28.6355 68.608 27.7715 67.792C26.9555 66.976 25.9235 66.304 24.6755 65.776C23.4755 65.248 21.7475 64.648 19.4915 63.976C16.2275 62.968 13.5635 61.96 11.4995 60.952C9.43548 59.944 7.65948 58.456 6.17148 56.488C4.68348 54.52 3.93948 51.952 3.93948 48.784C3.93948 44.08 5.64348 40.408 9.05148 37.768C12.4595 35.08 16.8995 33.736 22.3715 33.736C27.9395 33.736 32.4275 35.08 35.8355 37.768C39.2435 40.408 41.0675 44.104 41.3075 48.856H27.9875C27.8915 47.224 27.2915 45.952 26.1875 45.04C25.0835 44.08 23.6675 43.6 21.9395 43.6C20.4515 43.6 19.2515 44.008 18.3395 44.824C17.4275 45.592 16.9715 46.72 16.9715 48.208C16.9715 49.84 17.7395 51.112 19.2755 52.024C20.8115 52.936 23.2115 53.92 26.4755 54.976C29.7395 56.08 32.3795 57.136 34.3955 58.144C36.4595 59.152 38.2355 60.616 39.7235 62.536C41.2115 64.456 41.9555 66.928 41.9555 69.952C41.9555 72.832 41.2115 75.448 39.7235 77.8C38.2835 80.152 36.1715 82.024 33.3875 83.416C30.6035 84.808 27.3155 85.504 23.5235 85.504ZM89.2044 44.824V85H76.8924V79.528C75.6444 81.304 73.9404 82.744 71.7804 83.848C69.6684 84.904 67.3164 85.432 64.7244 85.432C61.6524 85.432 58.9404 84.76 56.5884 83.416C54.2364 82.024 52.4124 80.032 51.1164 77.44C49.8204 74.848 49.1724 71.8 49.1724 68.296V44.824H61.4124V66.64C61.4124 69.328 62.1084 71.416 63.5004 72.904C64.8924 74.392 66.7644 75.136 69.1164 75.136C71.5164 75.136 73.4124 74.392 74.8044 72.904C76.1964 71.416 76.8924 69.328 76.8924 66.64V44.824H89.2044ZM95.6 64.912C95.6 60.736 96.44 57.088 98.12 53.968C99.848 50.848 102.224 48.448 105.248 46.768C108.32 45.088 111.824 44.248 115.76 44.248C120.8 44.248 125 45.568 128.36 48.208C131.768 50.848 134 54.568 135.056 59.368H121.952C120.848 56.296 118.712 54.76 115.544 54.76C113.288 54.76 111.488 55.648 110.144 57.424C108.8 59.152 108.128 61.648 108.128 64.912C108.128 68.176 108.8 70.696 110.144 72.472C111.488 74.2 113.288 75.064 115.544 75.064C118.712 75.064 120.848 73.528 121.952 70.456H135.056C134 75.16 131.768 78.856 128.36 81.544C124.952 84.232 120.752 85.576 115.76 85.576C111.824 85.576 108.32 84.736 105.248 83.056C102.224 81.376 99.848 78.976 98.12 75.856C96.44 72.736 95.6 69.088 95.6 64.912ZM139.194 64.912C139.194 60.736 140.034 57.088 141.714 53.968C143.442 50.848 145.818 48.448 148.842 46.768C151.914 45.088 155.418 44.248 159.354 44.248C164.394 44.248 168.594 45.568 171.954 48.208C175.362 50.848 177.594 54.568 178.65 59.368H165.546C164.442 56.296 162.306 54.76 159.138 54.76C156.882 54.76 155.082 55.648 153.738 57.424C152.394 59.152 151.722 61.648 151.722 64.912C151.722 68.176 152.394 70.696 153.738 72.472C155.082 74.2 156.882 75.064 159.138 75.064C162.306 75.064 164.442 73.528 165.546 70.456H178.65C177.594 75.16 175.362 78.856 171.954 81.544C168.546 84.232 164.346 85.576 159.354 85.576C155.418 85.576 151.914 84.736 148.842 83.056C145.818 81.376 143.442 78.976 141.714 75.856C140.034 72.736 139.194 69.088 139.194 64.912ZM223.107 64.264C223.107 65.416 223.035 66.616 222.891 67.864H195.027C195.219 70.36 196.011 72.28 197.403 73.624C198.843 74.92 200.595 75.568 202.659 75.568C205.731 75.568 207.867 74.272 209.067 71.68H222.171C221.499 74.32 220.275 76.696 218.499 78.808C216.771 80.92 214.587 82.576 211.947 83.776C209.307 84.976 206.355 85.576 203.091 85.576C199.155 85.576 195.651 84.736 192.579 83.056C189.507 81.376 187.107 78.976 185.379 75.856C183.651 72.736 182.787 69.088 182.787 64.912C182.787 60.736 183.627 57.088 185.307 53.968C187.035 50.848 189.435 48.448 192.507 46.768C195.579 45.088 199.107 44.248 203.091 44.248C206.979 44.248 210.435 45.064 213.459 46.696C216.483 48.328 218.835 50.656 220.515 53.68C222.243 56.704 223.107 60.232 223.107 64.264ZM210.507 61.024C210.507 58.912 209.787 57.232 208.347 55.984C206.907 54.736 205.107 54.112 202.947 54.112C200.883 54.112 199.131 54.712 197.691 55.912C196.299 57.112 195.435 58.816 195.099 61.024H210.507ZM245.947 85.576C242.443 85.576 239.323 84.976 236.587 83.776C233.851 82.576 231.691 80.944 230.107 78.88C228.523 76.768 227.635 74.416 227.443 71.824H239.611C239.755 73.216 240.403 74.344 241.555 75.208C242.707 76.072 244.123 76.504 245.803 76.504C247.339 76.504 248.515 76.216 249.331 75.64C250.195 75.016 250.627 74.224 250.627 73.264C250.627 72.112 250.027 71.272 248.827 70.744C247.627 70.168 245.683 69.544 242.995 68.872C240.115 68.2 237.715 67.504 235.795 66.784C233.875 66.016 232.219 64.84 230.827 63.256C229.435 61.624 228.739 59.44 228.739 56.704C228.739 54.4 229.363 52.312 230.611 50.44C231.907 48.52 233.779 47.008 236.227 45.904C238.723 44.8 241.675 44.248 245.083 44.248C250.123 44.248 254.083 45.496 256.963 47.992C259.891 50.488 261.571 53.8 262.003 57.928H250.627C250.435 56.536 249.811 55.432 248.755 54.616C247.747 53.8 246.403 53.392 244.723 53.392C243.283 53.392 242.179 53.68 241.411 54.256C240.643 54.784 240.259 55.528 240.259 56.488C240.259 57.64 240.859 58.504 242.059 59.08C243.307 59.656 245.227 60.232 247.819 60.808C250.795 61.576 253.219 62.344 255.091 63.112C256.963 63.832 258.595 65.032 259.987 66.712C261.427 68.344 262.171 70.552 262.219 73.336C262.219 75.688 261.547 77.8 260.203 79.672C258.907 81.496 257.011 82.936 254.515 83.992C252.067 85.048 249.211 85.576 245.947 85.576ZM286.095 85.576C282.591 85.576 279.471 84.976 276.735 83.776C273.999 82.576 271.839 80.944 270.255 78.88C268.671 76.768 267.783 74.416 267.591 71.824H279.759C279.903 73.216 280.551 74.344 281.703 75.208C282.855 76.072 284.271 76.504 285.951 76.504C287.487 76.504 288.663 76.216 289.479 75.64C290.343 75.016 290.775 74.224 290.775 73.264C290.775 72.112 290.175 71.272 288.975 70.744C287.775 70.168 285.831 69.544 283.143 68.872C280.263 68.2 277.863 67.504 275.943 66.784C274.023 66.016 272.367 64.84 270.975 63.256C269.583 61.624 268.887 59.44 268.887 56.704C268.887 54.4 269.511 52.312 270.759 50.44C272.055 48.52 273.927 47.008 276.375 45.904C278.871 44.8 281.823 44.248 285.231 44.248C290.271 44.248 294.231 45.496 297.111 47.992C300.039 50.488 301.719 53.8 302.151 57.928H290.775C290.583 56.536 289.959 55.432 288.903 54.616C287.895 53.8 286.551 53.392 284.871 53.392C283.431 53.392 282.327 53.68 281.559 54.256C280.791 54.784 280.407 55.528 280.407 56.488C280.407 57.64 281.007 58.504 282.207 59.08C283.455 59.656 285.375 60.232 287.967 60.808C290.943 61.576 293.367 62.344 295.239 63.112C297.111 63.832 298.743 65.032 300.135 66.712C301.575 68.344 302.319 70.552 302.367 73.336C302.367 75.688 301.695 77.8 300.351 79.672C299.055 81.496 297.159 82.936 294.663 83.992C292.215 85.048 289.359 85.576 286.095 85.576Z" fill="#1773EA"/>
</g>
<path opacity="0.8" d="M209.376 30.4336C206.226 18.8391 194.167 6.77812 182.57 3.62812C175.459 1.85625 165.934 0.0304687 153.004 0C140.073 0.0304687 130.548 1.85625 123.438 3.62812C111.843 6.77812 99.782 18.8367 96.632 30.4336C94.8602 37.5445 93.0344 47.0695 93.0039 60C93.0344 72.9305 94.8602 82.4555 96.632 89.5664C99.782 101.163 111.843 113.222 123.438 116.372C130.548 118.144 140.078 119.97 153.004 120C165.932 119.97 175.459 118.144 182.57 116.372C194.167 113.222 206.226 101.163 209.376 89.5664C211.148 82.4555 212.973 72.9258 213.004 60C212.973 47.0695 211.148 37.5445 209.376 30.4336Z" fill="white"/>
<path d="M189.4 52.0968C187.748 50.4906 186.093 48.8789 184.434 47.2617C184.387 45.0164 184.328 42.7695 184.258 40.521C184.164 37.514 182.866 34.6453 180.634 32.414C178.485 30.2205 175.581 28.9282 172.513 28.7999C170.26 28.7296 168.009 28.671 165.759 28.6242C164.13 26.9742 162.519 25.3234 160.923 23.6718C159.911 22.584 158.686 21.7165 157.323 21.1233C155.961 20.53 154.491 20.2239 153.005 20.2239C151.519 20.2239 150.049 20.53 148.687 21.1233C147.324 21.7165 146.099 22.584 145.087 23.6718C143.49 25.3249 141.875 26.9796 140.242 28.6359C137.992 28.6796 135.742 28.7374 133.492 28.8093C127.293 29.0203 121.959 34.3429 121.748 40.5281C121.677 42.7734 121.619 45.0203 121.572 47.2687C119.914 48.889 118.259 50.4992 116.605 52.0992C114.4 54.2437 113.16 57.0374 113.16 59.9999C113.17 61.4818 113.48 62.9463 114.072 64.3048C114.665 65.6632 115.526 66.8874 116.605 67.9031C118.259 69.5015 119.914 71.1101 121.572 72.7289C121.619 74.9789 121.677 77.2281 121.748 79.4765C121.841 82.4882 123.14 85.35 125.369 87.5835C127.519 89.7768 130.423 91.069 133.492 91.1976C135.745 91.2679 137.997 91.3265 140.247 91.3734C141.877 93.0265 143.488 94.6781 145.082 96.3281C146.095 97.4154 147.322 98.2826 148.684 98.8755C150.047 99.4683 151.518 99.7743 153.004 99.7743C154.49 99.7743 155.961 99.4683 157.323 98.8755C158.686 98.2826 159.913 97.4154 160.926 96.3281C162.529 94.6796 164.142 93.0273 165.766 91.371C168.016 91.3257 170.266 91.2679 172.516 91.1976C178.713 90.9867 184.049 85.6593 184.26 79.4789C184.33 77.2335 184.389 74.9874 184.436 72.7406C186.094 71.1218 187.749 69.5085 189.402 67.9007C190.48 66.8846 191.341 65.6607 191.933 64.3029C192.526 62.945 192.837 61.4813 192.848 59.9999C192.848 57.0328 191.608 54.239 189.4 52.0968Z" fill="url(#paint0_linear_6121_4021)"/>
<path d="M172.817 54.9586C166.104 61.9336 159.284 69.0657 152.578 76.1391C152.033 76.7162 151.376 77.1761 150.647 77.4908C149.918 77.8055 149.133 77.9684 148.339 77.9696H148.317C147.524 77.9639 146.74 77.7997 146.011 77.4865C145.282 77.1734 144.623 76.7177 144.073 76.1461C140.489 72.4454 136.88 68.7469 133.292 65.079C132.746 64.5303 132.315 63.878 132.025 63.1604C131.735 62.4429 131.591 61.6746 131.602 60.9007C131.613 60.1267 131.779 59.3629 132.09 58.654C132.4 57.9451 132.85 57.3054 133.411 56.7727C134.542 55.679 136.059 55.0763 137.632 55.0961C139.205 55.1158 140.706 55.7564 141.809 56.8782C143.951 59.075 146.098 61.279 148.249 63.4899C153.574 57.9118 158.923 52.3032 164.187 46.7719C166.423 44.4282 170.152 44.3813 172.549 46.65C174.947 48.9188 175.069 52.6196 172.817 54.9586Z" fill="url(#paint1_linear_6121_4021)"/>
<defs>
<linearGradient id="paint0_linear_6121_4021" x1="180.604" y1="87.6023" x2="125.402" y2="32.4023" gradientUnits="userSpaceOnUse">
<stop stop-color="#46CC6B"/>
<stop offset="0.54" stop-color="#46CC6B"/>
<stop offset="1" stop-color="#4FFF7F"/>
</linearGradient>
<linearGradient id="paint1_linear_6121_4021" x1="162.811" y1="65.9086" x2="143.534" y2="46.6313" gradientUnits="userSpaceOnUse">
<stop stop-color="#C0FFD4"/>
<stop offset="1" stop-color="white"/>
</linearGradient>
</defs>
</svg>
