<svg width="158" height="192" viewBox="0 0 158 192" fill="none" xmlns="http://www.w3.org/2000/svg">
<path d="M78.8844 116.895C84.2055 116.635 85.3789 120.29 85.3789 120.29C85.3789 120.29 87.9767 132.419 95.3402 138.627C102.22 144.423 117.869 145.274 127.831 143.106C137.792 140.938 142.127 130.977 142.127 130.977C142.127 130.977 150.216 112.344 150.36 104.551C150.503 96.7484 142.557 98.4863 132.596 98.7729C122.635 99.0596 96.0747 105.124 88.129 107.149C84.2144 108.143 81.0702 108.268 78.8844 108.125C76.7077 108.259 73.5545 108.143 69.6398 107.149C61.7031 105.124 35.1339 99.0596 25.1637 98.7729C15.2025 98.4773 7.25678 96.7484 7.4001 104.551C7.54343 112.353 15.6324 130.977 15.6324 130.977C15.6324 130.977 19.9681 140.938 29.9293 143.106C39.8905 145.274 55.549 144.432 62.4198 138.627C69.7832 132.419 72.381 120.29 72.381 120.29C72.381 120.29 73.5634 116.635 78.8844 116.895ZM138.096 128.952C134.343 138.77 122.357 140.651 107.478 139.496C92.608 138.34 87.9857 124.473 90.5835 116.536C93.1813 108.6 116.579 106.136 116.579 106.136C123.513 104.837 141.133 104.981 141.706 109.173C142.127 112.183 141.85 119.134 138.096 128.952ZM16.0714 109.164C16.6447 104.972 34.265 104.828 41.1984 106.127C41.1984 106.127 64.5965 108.582 67.1943 116.528C69.7921 124.473 65.1698 138.331 50.2997 139.487C35.4205 140.651 23.4348 138.77 19.6814 128.952C15.9191 119.134 15.6504 112.183 16.0714 109.164Z" fill="#1773EA"/>
<path d="M78.8844 116.895C84.2055 116.635 85.3789 120.29 85.3789 120.29C85.3789 120.29 87.9767 132.419 95.3402 138.627C102.22 144.423 117.869 145.274 127.831 143.106C137.792 140.938 142.127 130.977 142.127 130.977C142.127 130.977 150.216 112.344 150.36 104.551C150.503 96.7484 142.557 98.4863 132.596 98.7729C122.635 99.0596 96.0747 105.124 88.129 107.149C84.2144 108.143 81.0702 108.268 78.8844 108.125C76.7077 108.259 73.5545 108.143 69.6398 107.149C61.7031 105.124 35.1339 99.0596 25.1637 98.7729C15.2025 98.4773 7.25678 96.7484 7.4001 104.551C7.54343 112.353 15.6324 130.977 15.6324 130.977C15.6324 130.977 19.9681 140.938 29.9293 143.106C39.8905 145.274 55.549 144.432 62.4198 138.627C69.7832 132.419 72.381 120.29 72.381 120.29C72.381 120.29 73.5634 116.635 78.8844 116.895ZM138.096 128.952C134.343 138.77 122.357 140.651 107.478 139.496C92.608 138.34 87.9857 124.473 90.5835 116.536C93.1813 108.6 116.579 106.136 116.579 106.136C123.513 104.837 141.133 104.981 141.706 109.173C142.127 112.183 141.85 119.134 138.096 128.952ZM16.0714 109.164C16.6447 104.972 34.265 104.828 41.1984 106.127C41.1984 106.127 64.5965 108.582 67.1943 116.528C69.7921 124.473 65.1698 138.331 50.2997 139.487C35.4205 140.651 23.4348 138.77 19.6814 128.952C15.9191 119.134 15.6504 112.183 16.0714 109.164Z" fill="black" fill-opacity="0.1"/>
<path d="M133.035 154.545C136.433 157.353 140.188 163.799 140.246 168.838C140.344 177.022 135.019 180.29 128.884 180.025C122.056 179.733 115.804 175.037 111.906 168.475C106.498 159.357 101.174 148.468 90.5056 148.507C89.2929 148.513 79.7663 150.005 78.8778 152.359C77.9894 150.005 68.4628 148.513 67.2501 148.507C56.5821 148.468 51.2578 159.357 45.8493 168.475C41.9582 175.037 35.7001 179.733 28.8778 180.025C22.7429 180.284 17.4186 177.015 17.5159 168.838C17.5677 163.805 21.3226 157.353 24.7273 154.545C17.2694 160.699 11.0827 169.441 16.7571 180.239C24.4744 194.914 43.1385 194.143 54.6366 187.171C61.6016 182.949 71.0633 169.694 78.8778 171.095C78.8778 171.101 78.8778 171.114 78.8778 171.114C87.8532 172.794 96.1087 182.917 103.119 187.165C114.617 194.136 133.281 194.908 140.999 180.232C146.68 169.441 140.493 160.699 133.035 154.545Z" fill="#333333"/>
<path d="M139.889 165.984C141.517 168.403 142.678 171.042 143.067 173.896C144.13 165.951 138.987 159.388 133.034 154.473C135.829 156.781 138.864 161.561 139.889 165.984Z" fill="#333333"/>
<path d="M17.8723 165.984C18.8905 161.561 21.9255 156.781 24.7271 154.473C18.7673 159.388 13.6311 165.958 14.6946 173.902C15.0837 171.049 16.2446 168.403 17.8723 165.984Z" fill="#333333"/>
<path d="M17.671 171.217C17.5737 171.814 17.5154 172.404 17.5089 172.975C17.4116 181.159 22.7359 184.427 28.8708 184.168C35.6996 183.876 41.9512 179.181 45.8423 172.618C51.2508 163.506 56.5751 152.611 67.2431 152.65C68.4558 152.657 77.9824 154.148 78.8709 156.502C79.7593 154.148 89.2859 152.657 90.4986 152.65C101.167 152.611 106.491 163.5 111.899 172.618C115.791 179.181 122.049 183.876 128.877 184.168C135.012 184.427 140.337 181.159 140.239 172.975C140.233 172.404 140.174 171.814 140.077 171.217C139.176 177.599 134.351 180.193 128.877 179.959C122.049 179.667 115.797 174.972 111.899 168.409C106.491 159.298 101.167 148.403 90.4986 148.442C89.2859 148.448 79.7593 149.94 78.8709 152.294C77.9889 149.946 68.4623 148.454 67.2496 148.448C56.5816 148.409 51.2573 159.298 45.8488 168.416C41.9577 174.979 35.6996 179.674 28.8773 179.966C23.3973 180.193 18.5724 177.599 17.671 171.217Z" fill="#333333"/>
<path d="M133.035 154.545C135.882 156.899 138.975 161.808 139.935 166.302C140.019 165.628 140.071 164.921 140.058 164.162C140.051 163.365 139.935 162.528 139.76 161.672C137.937 159.013 135.557 156.633 133.035 154.545Z" fill="#333333"/>
<path d="M17.4761 162.457C17.3853 163.04 17.327 163.611 17.3205 164.162C17.3075 165.356 17.4178 166.432 17.6188 167.418C18.2543 162.645 21.6266 157.094 24.7135 154.545C21.9508 156.834 19.3568 159.48 17.4761 162.457Z" fill="#333333"/>
<path d="M142.93 168.928C142.697 171.042 142.029 173.254 140.816 175.556C133.099 190.232 114.435 189.46 102.937 182.489C95.9327 178.241 87.6772 168.118 78.6954 166.438C78.6954 166.438 78.6954 166.425 78.6954 166.419C70.8808 165.018 61.4191 178.273 54.4541 182.495C42.9495 189.46 24.2919 190.238 16.5746 175.563C15.5954 173.701 14.9728 171.898 14.6485 170.16C14.2983 173.28 14.869 176.646 16.7627 180.238C24.4799 194.914 43.1441 194.142 54.6421 187.171C61.6006 182.949 71.0624 169.694 78.8769 171.094C78.8769 171.101 78.8769 171.114 78.8769 171.114C87.8588 172.793 96.1143 182.917 103.118 187.164C114.616 194.136 133.28 194.908 140.998 180.232C143.138 176.166 143.592 172.391 142.93 168.928Z" fill="#333333"/>
<path d="M26.8904 36.8193C26.8904 36.8193 30.1962 7.02868 56.3834 0.985492C82.5705 -5.05769 93.7616 18.6674 93.7616 18.6674C93.7616 18.6674 95.1045 22.0247 95.5522 30.0823C95.5522 30.0823 76.5273 52.9121 70.708 57.6124C70.708 57.6124 51.8465 42.303 26.8904 36.8193Z" fill="#1773EA"/>
<path d="M26.8904 36.8193C26.8904 36.8193 30.1962 7.02868 56.3834 0.985492C82.5705 -5.05769 93.7616 18.6674 93.7616 18.6674C93.7616 18.6674 95.1045 22.0247 95.5522 30.0823C95.5522 30.0823 76.5273 52.9121 70.708 57.6124C70.708 57.6124 51.8465 42.303 26.8904 36.8193Z" fill="black" fill-opacity="0.05"/>
<path d="M69.3654 50.1002C69.6675 49.7555 62.362 45.0239 62.0017 44.8158C50.4816 38.1571 38.6996 34.041 25.3867 36.1114C15.6974 37.6177 4.88935 44.9747 1.6683 54.7109C-3.25584 69.5951 5.09724 84.0853 19.6792 89.7167C19.677 89.7167 54.3693 67.1107 69.3654 50.1002Z" fill="#1773EA"/>
<path d="M69.3654 50.1002C69.6675 49.7555 62.362 45.0239 62.0017 44.8158C50.4816 38.1571 38.6996 34.041 25.3867 36.1114C15.6974 37.6177 4.88935 44.9747 1.6683 54.7109C-3.25584 69.5951 5.09724 84.0853 19.6792 89.7167C19.677 89.7167 54.3693 67.1107 69.3654 50.1002Z" fill="white" fill-opacity="0.1"/>
<path d="M94.4336 11.8263C94.6754 11.7547 94.8902 17.4666 94.8701 17.8091C94.4493 24.7744 87.9473 29.309 83.4731 33.8392C77.7186 39.663 71.8679 45.3929 65.9344 51.0332C53.3154 63.0278 40.3874 75.2708 25.9464 85.0787C23.7127 86.5962 21.094 88.0756 18.679 89.291C18.679 89.291 21.8125 91.0592 28.1824 91.0592H80.7805C80.7805 91.0592 114.578 67.5579 126.44 48.0854C126.44 48.0854 136.064 30.8512 120.397 16.3028C120.397 16.3028 110.996 6.90225 94.4336 11.8263Z" fill="#1773EA"/>
<path d="M130.59 41.0603C130.59 41.0603 119.399 63.8901 80.0065 90.9726H137.305C137.305 90.9726 153.868 88.0629 157.001 71.2763C160.135 54.4896 148.496 40.8365 130.59 41.0603Z" fill="#1773EA"/>
<path d="M130.59 41.0603C130.59 41.0603 119.399 63.8901 80.0065 90.9726H137.305C137.305 90.9726 153.868 88.0629 157.001 71.2763C160.135 54.4896 148.496 40.8365 130.59 41.0603Z" fill="white" fill-opacity="0.1"/>
</svg>
