<svg width="227" height="267" viewBox="0 0 227 267" fill="none" xmlns="http://www.w3.org/2000/svg">
<path fillRule="evenodd" clipRule="evenodd" d="M58.2218 222.327C74.9541 240.925 98.6406 251.537 123.78 251.537C172.489 251.537 211.972 212.054 211.972 163.345C211.972 114.635 172.489 75.1522 123.78 75.1522C78.3014 75.1522 40.1836 109.811 35.9772 155.075L35.6656 158.425C42.5041 165.171 50.9675 170.464 56.6715 178.261C66.5153 191.718 63.5722 207.755 58.2218 222.326V222.327Z" fill="#377355"/>
<mask id="mask0_1_36" style="mask-type:luminance" maskUnits="userSpaceOnUse" x="35" y="75" width="177" height="177">
<path d="M58.2218 222.327C74.9541 240.925 98.6406 251.537 123.78 251.537C172.489 251.537 211.972 212.054 211.972 163.345C211.972 114.635 172.489 75.1522 123.78 75.1522C78.3014 75.1522 40.1836 109.811 35.9772 155.075L35.6656 158.425C42.5041 165.171 50.9675 170.464 56.6715 178.261C66.5153 191.718 63.5722 207.755 58.2218 222.326V222.327Z" fill="white"/>
</mask>
<g mask="url(#mask0_1_36)">
<path fillRule="evenodd" clipRule="evenodd" d="M229.431 171.314C222.392 169.864 215.162 168.607 207.739 167.542C189.6 164.94 170.302 163.489 149.849 163.188C166.936 157.306 186.127 154.005 206.411 154.005C214.269 154.005 221.961 154.502 229.431 155.452V171.314ZM160.49 184.167C170.605 187.447 180.246 190.758 189.411 194.098C188.676 194.09 187.94 194.085 187.205 194.085C182.223 194.085 177.221 194.281 172.225 194.68L169.687 192.204C166.77 189.358 163.696 186.682 160.49 184.166L160.49 184.167ZM212.507 195.795C190.955 187.125 166.302 178.651 138.551 170.373C138.171 170.182 137.787 169.995 137.405 169.809C162.185 169.618 185.319 171.063 206.8 174.144C214.561 175.257 222.105 176.585 229.431 178.125V198.952C223.847 197.625 218.195 196.575 212.507 195.795Z" fill="#D2AF6E"/>
<path fillRule="evenodd" clipRule="evenodd" d="M18.8783 208.631C30.1127 220.99 40.7672 233.197 50.838 245.25L18.8783 228.01V208.631ZM18.8783 162.538C32.3486 159.177 46.8414 157.346 61.9408 157.346C105.071 157.346 143.263 172.264 166.769 195.196C158.215 196.132 149.708 197.671 141.378 199.842C132.887 195.302 124.444 191.177 116.054 187.468C82.8723 172.799 50.4801 164.618 18.8783 162.919L18.8791 162.538H18.8783ZM107.764 212.784C80.8627 193.512 51.7231 178.737 18.8783 170.296L18.8791 168.263C49.7454 169.964 81.4202 177.994 113.904 192.354C120.551 195.292 127.231 198.495 133.945 201.964C126.727 204.207 119.674 206.947 112.88 210.204C111.164 211.026 109.457 211.888 107.765 212.784H107.764ZM83.7877 229.123C63.2735 211.27 41.7202 195.498 18.8783 182.109L18.8791 175.813C49.6673 183.92 77.1516 197.735 102.598 215.665C95.9528 219.56 89.5973 224.047 83.7877 229.123ZM63.2692 251.955C49.6051 235.174 34.8087 218.101 18.8783 200.734L18.8791 188.309C40.2603 201.079 60.5076 215.981 79.8315 232.757C73.8087 238.571 68.4988 245.08 64.2309 252.284L64.1456 252.429L63.2685 251.956L63.2692 251.955Z" fill="#FEFEFE"/>
<path fillRule="evenodd" clipRule="evenodd" d="M196.529 245.759C206.879 237.32 217.835 229.683 229.431 222.533V228.01L196.529 245.759ZM116.631 280.74C131.406 265.981 146.759 254.228 162.507 244.69C183.111 232.211 204.444 223.495 226.069 216.778C208.599 227.545 192.512 239.43 177.678 253.472C175.782 255.265 173.909 257.094 172.056 258.96L124.154 284.799L116.631 280.741V280.74ZM92.0479 267.48C108.615 251.954 126.033 239.641 144.376 230.458C169.477 217.893 196.359 211.169 225.202 210.065C202.761 216.966 180.572 225.972 159.062 239C142.37 249.11 126.12 261.63 110.522 277.445L92.0479 267.479V267.48ZM67.8263 254.414C87.365 221.436 133.452 198.266 187.204 198.266C201.991 198.266 216.197 200.022 229.431 203.253V203.276C197.957 203.861 168.685 210.851 141.401 224.509C121.869 234.286 103.386 247.469 85.8717 264.149L67.8256 254.414H67.8263Z" fill="#D2AF6E"/>
</g>
<path fillRule="evenodd" clipRule="evenodd" d="M30.7772 218.945C22.2972 206.212 17.2969 191.659 19.4221 176.098L19.5501 175.166L21.4324 175.178L21.5481 176.112C27.9151 227.621 71.8418 266.375 123.78 266.375C180.682 266.375 226.811 220.248 226.811 163.345C226.811 106.443 180.684 60.313 123.781 60.313C76.3222 60.3138 34.9395 92.7985 23.6986 138.801C25.0219 143.542 27.051 147.807 29.8531 151.768C35.6084 104.528 75.8862 68.7092 123.78 68.7092C176.045 68.7092 218.416 111.078 218.415 163.345C218.415 215.61 176.045 257.979 123.78 257.979C95.6917 257.979 69.2769 245.624 51.2372 224.109L50.8286 223.621L51.0615 223.028C54.1347 215.21 56.9809 205.949 56.6931 197.453C56.4986 191.687 54.8796 186.725 51.4715 182.065C48.7996 178.413 45.3459 175.342 41.9046 172.433C38.0598 169.184 34.1578 166.061 30.6059 162.478C21.7231 153.519 17.2759 143.722 15.8448 131.575C-4.07206 165.963 -11.1087 201.251 30.7772 218.944V218.945Z" fill="#D2AF6E"/>
<path fillRule="evenodd" clipRule="evenodd" d="M124.154 34.5751C133.076 30.548 141.823 23.8064 148.434 16.6323C152.455 12.269 156.724 6.65832 158.736 1.02233L158.991 0.309326H169.375L169.02 1.6565C166.921 9.64552 161.373 17.4516 155.841 23.4521C150.373 29.3809 143.831 34.8253 136.923 39.1177C138.586 39.6036 140.26 40.057 141.942 40.4765C143.933 40.974 145.936 41.4252 147.949 41.8316C152.279 35.7125 157.528 30.3723 163.904 26.3713C174.737 19.5725 186.866 17.8146 199.428 18.9542L205.578 19.5118L203.786 25.4197C200.817 35.1991 195.022 42.7398 185.947 47.5095C177.599 51.8974 167.755 53.1976 158.386 53.1144C161.649 60.7159 163.395 68.8979 163.525 77.1769C163.696 88.0028 161.103 98.6833 155.977 108.218C156.048 108.607 156.105 108.997 156.15 109.39C156.616 113.398 155.756 117.44 153.72 120.923C151.491 124.735 146.194 126.635 142.133 127.6C136.406 128.962 130.03 129.416 124.154 129.416C118.275 129.416 111.902 128.96 106.175 127.6C102.114 126.635 96.8162 124.735 94.5868 120.923C92.5505 117.44 91.6907 113.399 92.1557 109.39C92.2005 108.998 92.2583 108.609 92.3278 108.22C87.2037 98.6854 84.6099 88.0028 84.7791 77.1769C84.9093 68.8972 86.6556 60.7159 89.9183 53.1144C80.5503 53.1976 70.7079 51.8967 62.3595 47.5095C53.2829 42.7398 47.4929 35.1977 44.5223 25.4204L42.7275 19.5118L48.8791 18.9542C61.4412 17.8146 73.5693 19.5725 84.4038 26.3713C90.7788 30.3723 96.028 35.7118 100.356 41.8316C102.369 41.4252 104.372 40.974 106.364 40.4765C108.047 40.0563 109.72 39.6036 111.385 39.117C104.476 34.8253 97.9312 29.3809 92.4659 23.4513C86.9355 17.4516 81.3833 9.64336 79.287 1.6565L78.9334 0.309326H89.3145L89.5691 1.02233C91.583 6.65832 95.8523 12.269 99.8743 16.6323C106.486 23.8057 115.233 30.548 124.153 34.5751H124.154Z" fill="#D2AF6E"/>
<path fillRule="evenodd" clipRule="evenodd" d="M124.938 43.7529H124.957L125.097 43.8072C125.801 44.0783 126.509 44.3401 127.22 44.5917C131.398 46.0712 135.655 47.3512 139.955 48.4257C141.365 48.7786 142.782 49.1069 144.202 49.4193L145.249 49.6492L144.737 50.5907C142.362 54.9613 140.362 59.5422 138.646 64.2085L138.633 64.2787L138.612 64.3365C136.085 71.6198 134.402 79.791 135.64 87.5002C136.74 94.3445 139.954 99.9704 145.272 104.416L145.313 104.451L145.349 104.491C146.827 106.106 147.76 108.145 148.012 110.32C148.273 112.564 147.811 114.833 146.669 116.787C145.785 118.301 141.829 119.244 140.239 119.622C135.134 120.834 129.392 121.213 124.154 121.213C118.915 121.213 113.172 120.834 108.066 119.622C106.478 119.244 102.522 118.299 101.638 116.787C100.496 114.833 100.035 112.564 100.297 110.32C100.549 108.144 101.479 106.105 102.96 104.49L102.996 104.451L103.037 104.416C108.354 99.9704 111.567 94.3438 112.667 87.5002C113.906 79.7925 112.221 71.6191 109.697 64.3365L109.678 64.2837L109.665 64.2136C107.946 59.5459 105.947 54.962 103.569 50.5907L103.057 49.6492L104.104 49.4193C105.524 49.1076 106.941 48.7786 108.351 48.4257C112.652 47.3504 116.909 46.0705 121.088 44.5917C121.801 44.3394 122.509 44.0769 123.215 43.8064L123.354 43.7529H123.369L124.154 43.4536L124.936 43.7529H124.938Z" fill="#FEFEFE"/>
<path fillRule="evenodd" clipRule="evenodd" d="M103.488 65.7141L103.514 65.7047L103.775 66.4582C105.935 72.7102 107.509 79.893 106.446 86.5168C105.584 91.8859 102.991 96.276 98.812 99.7412L98.6276 99.8938L97.7649 100.762L97.297 99.6559C94.3214 92.6083 92.8339 84.9556 92.9547 77.3187V77.2919C93.0704 69.8771 94.6851 62.5569 97.6904 55.7777L98.3795 54.2237L99.146 55.7408C100.782 58.9775 102.215 62.319 103.488 65.7141Z" fill="#377355"/>
<path fillRule="evenodd" clipRule="evenodd" d="M194.048 27.973C191.42 33.3653 187.445 37.4762 182.134 40.266C174.741 44.1485 165.707 45.0813 157.478 44.9142L155.837 44.881L156.867 43.6032C160.106 39.5827 163.88 36.0445 168.262 33.2952C175.875 28.5189 184.425 26.7054 193.334 26.8138L194.605 26.829L194.048 27.9723V27.973Z" fill="#377355"/>
<path fillRule="evenodd" clipRule="evenodd" d="M149.685 99.8966L149.498 99.7404C145.326 96.2687 142.726 91.8866 141.864 86.5175C140.8 79.8944 142.376 72.7102 144.536 66.4589L144.786 65.735L144.813 65.7423C146.088 62.3371 147.524 58.9883 149.161 55.7415L149.926 54.2222L150.616 55.7769C153.625 62.5555 155.24 69.8763 155.353 77.3049V77.3064C155.474 84.9555 153.985 92.6076 151.013 99.6566L150.553 100.749L149.685 99.8966Z" fill="#377355"/>
<path fillRule="evenodd" clipRule="evenodd" d="M66.1747 40.266C60.8641 37.4762 56.8877 33.366 54.262 27.973L53.7059 26.8305L54.9764 26.8153C63.8846 26.7061 72.4347 28.5204 80.047 33.2966C84.4291 36.0459 88.2031 39.5834 91.4412 43.6047L92.4702 44.8824L90.8302 44.9157C82.6018 45.082 73.5671 44.1499 66.1747 40.2668V40.266Z" fill="#377355"/>
</svg>
