<svg width="930" height="1257" viewBox="0 0 930 1257" fill="none" xmlns="http://www.w3.org/2000/svg">
<path opacity="0.025797" fillRule="evenodd" clipRule="evenodd" d="M788.491 567.093C792.396 563.178 798.736 563.178 802.642 567.093L921.856 686.59C925.751 690.495 925.751 696.818 921.856 700.723L802.642 820.22C798.736 824.135 792.396 824.135 788.491 820.22L669.277 700.723C665.381 696.818 665.381 690.495 669.277 686.59L788.491 567.093Z" fill="#1773EA"/>
<g opacity="0.0375744" filter="url(#filter0_f_10653_100511)">
<path fillRule="evenodd" clipRule="evenodd" d="M699.057 955.128C702.963 951.213 709.303 951.213 713.209 955.128L781.366 1023.45C785.262 1027.35 785.262 1033.68 781.366 1037.58L713.209 1105.9C709.303 1109.82 702.963 1109.82 699.057 1105.9L630.899 1037.58C627.004 1033.68 627.004 1027.35 630.899 1023.45L699.057 955.128Z" fill="#1773EA"/>
</g>
<path opacity="0.0659412" fillRule="evenodd" clipRule="evenodd" d="M378.213 794.935C382.119 791.02 388.459 791.02 392.365 794.935L635.864 1039.01C639.76 1042.92 639.76 1049.24 635.864 1053.15L392.365 1297.23C388.459 1301.14 382.119 1301.14 378.213 1297.23L134.714 1053.15C130.818 1049.24 130.818 1042.92 134.714 1039.01L378.213 794.935Z" fill="#1773EA"/>
<path opacity="0.0895647" fillRule="evenodd" clipRule="evenodd" d="M202.861 755.341C206.118 752.081 206.113 746.792 202.85 743.527L110.663 651.292C107.4 648.027 102.113 648.022 98.8555 651.281L6.83989 743.345C3.58227 746.604 3.58719 751.894 6.85085 755.159L99.0373 847.393C102.301 850.659 107.587 850.664 110.845 847.404L202.861 755.341ZM104.798 692.636L161.528 749.395L104.903 806.05L48.1729 749.29L104.798 692.636Z" fill="#1773EA"/>
<path opacity="0.0659412" fillRule="evenodd" clipRule="evenodd" d="M378.213 7.93637C382.119 4.02136 388.459 4.02135 392.365 7.93636L635.864 252.015C639.76 255.92 639.76 262.243 635.864 266.148L392.365 510.227C388.459 514.142 382.119 514.142 378.213 510.227L134.714 266.148C130.818 262.243 130.818 255.92 134.714 252.015L378.213 7.93637Z" fill="#1773EA"/>
<g opacity="0.2" filter="url(#filter1_f_10653_100511)">
<path fillRule="evenodd" clipRule="evenodd" d="M613.358 511.093C617.264 507.178 623.604 507.178 627.509 511.093L683.945 567.663C687.841 571.568 687.841 577.891 683.945 581.795L627.509 638.366C623.604 642.281 617.264 642.281 613.358 638.366L556.922 581.795C553.026 577.891 553.026 571.567 556.922 567.663L613.358 511.093Z" fill="#1773EA"/>
</g>
<defs>
<filter id="filter0_f_10653_100511" x="619.822" y="944.037" width="172.622" height="172.955" filterUnits="userSpaceOnUse" color-interpolation-filters="sRGB">
<feFlood flood-opacity="0" result="BackgroundImageFix"/>
<feBlend mode="normal" in="SourceGraphic" in2="BackgroundImageFix" result="shape"/>
<feGaussianBlur stdDeviation="4.07742" result="effect1_foregroundBlur_10653_100511"/>
</filter>
<filter id="filter1_f_10653_100511" x="545.845" y="500.001" width="149.177" height="149.455" filterUnits="userSpaceOnUse" color-interpolation-filters="sRGB">
<feFlood flood-opacity="0" result="BackgroundImageFix"/>
<feBlend mode="normal" in="SourceGraphic" in2="BackgroundImageFix" result="shape"/>
<feGaussianBlur stdDeviation="4.07742" result="effect1_foregroundBlur_10653_100511"/>
</filter>
</defs>
</svg>
